<svg t="1650965328221" class="icon" viewBox="0 0 1024 1024" version="1.1" xmlns="http://www.w3.org/2000/svg" p-id="7334" width="16" height="16"><path d="M825.95 62h-578.2c-34.62 0-62.79 28.17-62.79 62.79v128.2h41.86v-128.2c0-11.53 9.4-20.93 20.93-20.93h578.2c11.55 0 20.93 9.39 20.93 20.93v774.42c0 5.55-2.2 10.87-6.13 14.8a20.962 20.962 0 0 1-14.8 6.13h-578.2c-11.53 0-20.93-9.38-20.93-20.93V737h-41.86v162.21c0 34.62 28.17 62.79 62.79 62.79h578.2c34.62 0 62.79-28.17 62.79-62.79V124.79c0-34.62-28.17-62.79-62.79-62.79z m0 0" p-id="7335"></path><path d="M135.26 331.48h149.13v44.48H135.26v-44.48z m0 285.17h149.13v44.48H135.26v-44.48z m0-142.57h149.13v44.48H135.26v-44.48z m423.83-120.63c-49.63 0-90-40.37-90-90s40.37-90 90-90 90 40.37 90 90-40.37 90-90 90z m0-146.51c-31.16 0-56.51 25.35-56.51 56.51 0 31.16 25.35 56.51 56.51 56.51 31.16 0 56.51-25.35 56.51-56.51 0-31.16-25.34-56.51-56.51-56.51z m0 0" p-id="7336"></path><path d="M733.63 489.5H384.56l5.44-20.95c21.91-84.39 91.44-143.35 169.12-143.35 77.67 0 147.2 58.94 169.09 143.35l5.42 20.95z m-304.41-33.49h259.74c-22.98-58.25-73.92-97.33-129.87-97.33-55.92 0.01-106.89 39.08-129.87 97.33z m23.99 424.68l20.24-117.92-85.67-83.49 118.38-17.2 52.93-107.27 52.93 107.27 118.36 17.2-85.65 83.49 20.22 117.92-105.89-55.67-105.85 55.67z m105.88-93.54l61.41 32.29-11.72-68.38 49.67-48.41-68.65-9.98-30.7-62.2-30.7 62.23-68.65 9.98 49.69 48.41-11.74 68.38 61.39-32.32z m0 0" p-id="7337"></path></svg>