<svg t="1650964872439" class="icon" viewBox="0 0 1024 1024" version="1.1" xmlns="http://www.w3.org/2000/svg" p-id="5062" width="200" height="200"><path d="M832 112h-108.032v-40A8 8 0 0 0 716.032 64h-56.064a8 8 0 0 0-7.936 8v40H499.968v-40A8 8 0 0 0 492.032 64h-56a8 8 0 0 0-8 8v40H320a32 32 0 0 0-32 32v120H192a32 32 0 0 0-32 32V928a32 32 0 0 0 32 32h512a32 32 0 0 0 32-32V832H832a32 32 0 0 0 32-32V144a32 32 0 0 0-32-32z m-168 776h-432V336h217.984v174.016c0 22.08 17.92 40 40 40h174.016v337.984z m0-401.984H513.984V336h0.192l149.824 149.76v0.256z m128 273.984H736v-304l-192-192H360v-80h68.032v32c0 4.416 3.584 8 8 8h56a8 8 0 0 0 8-8v-32h152v32c0 4.416 3.584 8 7.936 8h56.064a8 8 0 0 0 7.936-8v-32h68.032v576z" p-id="5063"></path></svg>