<svg t="1650333689596" class="icon" viewBox="0 0 1024 1024" version="1.1" xmlns="http://www.w3.org/2000/svg" p-id="7871" width="200" height="200"><path d="M853.02 261.38H736.67V177.1C736.56 79.49 660.16 0.4 565.89 0.3H170.78C76.52 0.4 0.11 79.49 0 177.1v409.03c0.11 97.61 76.51 176.71 170.79 176.8h116.34v84.29c0.12 97.6 76.52 176.68 170.78 176.78h395.11c94.27-0.11 170.67-79.19 170.78-176.79V438.18c-0.11-97.61-76.51-176.7-170.78-176.8z m93.17 585.81c-0.06 53.26-41.74 96.41-93.18 96.47h-395.1c-51.44-0.06-93.12-43.21-93.19-96.47v-84.26h201.17c94.27-0.1 170.66-79.19 170.78-176.79V469.23c0-22.18-17.37-40.17-38.8-40.17-21.43 0-38.8 17.99-38.8 40.17v116.91c-0.06 53.26-41.75 96.4-93.18 96.46H170.78c-51.44-0.06-93.12-43.2-93.18-96.46V177.1c0.06-53.26 41.75-96.42 93.18-96.47h395.11c51.44 0.05 93.12 43.21 93.18 96.47v84.28H457.91c-94.27 0.1-170.67 79.19-170.78 176.8v115.39c0 22.18 17.37 40.17 38.8 40.17 21.43 0 38.8-17.99 38.8-40.17V438.18c0.07-53.25 41.75-96.4 93.19-96.46h395.11c51.43 0.06 93.11 43.21 93.18 96.47v409.03-0.03z m0 0" p-id="7872"></path></svg>