<?xml version="1.0" standalone="no"?><!DOCTYPE svg PUBLIC "-//W3C//DTD SVG 1.1//EN" "http://www.w3.org/Graphics/SVG/1.1/DTD/svg11.dtd"><svg t="1650331622494" class="icon" viewBox="0 0 1024 1024" version="1.1" xmlns="http://www.w3.org/2000/svg" p-id="3575" xmlns:xlink="http://www.w3.org/1999/xlink" width="200" height="200"><defs><style type="text/css">@font-face { font-family: feedback-iconfont; src: url("//at.alicdn.com/t/font_1031158_u69w8yhxdu.woff2?t=1630033759944") format("woff2"), url("//at.alicdn.com/t/font_1031158_u69w8yhxdu.woff?t=1630033759944") format("woff"), url("//at.alicdn.com/t/font_1031158_u69w8yhxdu.ttf?t=1630033759944") format("truetype"); }
</style></defs><path d="M881.040012 605.30155l-1.621835-1.621834c-10.409842-10.409842-27.286544-10.409842-37.696386 0l-169.144832 169.145856-80.563393-80.563393c-10.409842-10.409842-27.286544-10.409842-37.696386 0l-1.621834 1.621834c-10.409842 10.409842-10.409842 27.286544 0 37.696386l98.894012 98.894012a26.787912 26.787912 0 0 0 3.218072 2.744013c10.458989 9.577423 26.706001 9.306094 36.832226-0.821156l189.399332-189.399332c10.410866-10.408818 10.410866-27.286544 0.001024-37.696386z" fill="#333333" p-id="3576"></path><path d="M525.480474 871.790231h-285.469467c-29.637385 0-53.824628-24.132977-53.824628-53.769337 0-175.763227 139.509495-298.479978 339.293071-298.479979 71.672997 0 133.337514 40.978962 134.004064 41.424353 12.621434 8.507463 29.970147 5.171645 38.5329-7.507127s5.338538-29.914858-7.33921-38.532901c-1.945382-1.278833-31.971843-21.462684-76.399251-36.030524 61.274417-35.419265 102.58819-101.644168 102.58819-177.375846 0-112.875166-91.801558-204.676724-204.676724-204.676724-112.930456 0-204.732014 91.800534-204.732014 204.676724 0 74.731342 40.257123 140.231334 100.197418 175.929096C239.956741 518.150479 130.584287 646.873342 130.584287 818.020894c0 60.274081 49.098373 109.372454 109.427744 109.372454h285.469467l-0.001024 0.002048c15.347017 0 27.802582-12.455565 27.802582-27.802582s-12.456589-27.802582-27.802582-27.802583zM363.063593 301.519894c0-82.182156 66.891452-149.073608 149.128897-149.073608 82.182156 0 149.073608 66.835138 149.073608 149.073608s-66.835138 149.128898-149.073608 149.128897-149.128898-66.946742-149.128897-149.128897z" fill="#333333" p-id="3577"></path></svg>