<svg t="1651027248896" class="icon" viewBox="0 0 1024 1024" version="1.1" xmlns="http://www.w3.org/2000/svg" p-id="2154" width="16" height="16"><path d="M928 236.8h-6.4c-153.6-32-275.2-102.4-396.8-192-6.4-6.4-25.6-6.4-32 0L320 160c-64 38.4-147.2 57.6-224 76.8-19.2 0-25.6 19.2-19.2 38.4 6.4 140.8 32 288 89.6 416 64 134.4 204.8 236.8 339.2 300.8h32c128-64 262.4-166.4 332.8-300.8 64-128 83.2-281.6 89.6-422.4-12.8-19.2-19.2-32-32-32z m-121.6 422.4C748.8 780.8 627.2 870.4 512 928c-115.2-57.6-230.4-140.8-294.4-256-57.6-108.8-76.8-256-83.2-384 64-19.2 128-38.4 192-64S448 153.6 505.6 108.8C627.2 192 742.4 256 889.6 288c-6.4 128-25.6 256-83.2 371.2z" p-id="2155"></path><path d="M305.6 568.8L291.2 520c54.4-48.8 92-96.8 111.2-142.4H302.4v-44h54.4c-7.2-19.2-14.4-37.6-23.2-55.2l46.4-12.8c10.4 24.8 18.4 47.2 24 68h44.8v39.2c-10.4 32-27.2 63.2-49.6 94.4l16.8 12c13.6-11.2 27.2-26.4 40-45.6l28.8 28.8c-12 16.8-25.6 29.6-39.2 40.8 11.2 8.8 20.8 19.2 31.2 29.6l-25.6 40c-17.6-23.2-34.4-42.4-51.2-59.2v180h-46.4V523.2c-14.4 15.2-30.4 30.4-48 45.6zM468 344v-46.4H704c0 158.4-2.4 256-7.2 292.8-5.6 63.2-31.2 96-76 96-10.4 0-28.8-0.8-54.4-2.4L554.4 640c22.4 1.6 41.6 2.4 57.6 2.4 21.6 0 34.4-25.6 37.6-75.2 2.4-20.8 4-96 4.8-223.2h-76v35.2c-1.6 143.2-41.6 248.8-119.2 315.2l-36.8-32.8c71.2-59.2 108-152.8 108.8-283.2V344h-63.2z" p-id="2156"></path></svg>