<svg t="1650964695131" class="icon" viewBox="0 0 1024 1024" version="1.1" xmlns="http://www.w3.org/2000/svg" p-id="4230" width="200" height="200"><path d="M996.42 496.913333L896 396.493333V170.666667a42.713333 42.713333 0 0 0-42.666667-42.666667h-85.333333a42.713333 42.713333 0 0 0-42.666667 42.666667v55.16L563.62 64.113333a73.02 73.02 0 0 0-103.24 0l-432.8 432.8a21.333333 21.333333 0 0 0 30.173333 30.173334L128 456.84V896a85.426667 85.426667 0 0 0 85.333333 85.333333h597.333334a85.426667 85.426667 0 0 0 85.333333-85.333333V456.84l70.246667 70.246667a21.333333 21.333333 0 1 0 30.173333-30.173334zM426.666667 938.666667v-213.333334a42.713333 42.713333 0 0 1 42.666666-42.666666h85.333334a42.713333 42.713333 0 0 1 42.666666 42.666666v213.333334z m426.666666-42.666667a42.713333 42.713333 0 0 1-42.666666 42.666667H640v-213.333334a85.426667 85.426667 0 0 0-85.333333-85.333333H469.333333a85.426667 85.426667 0 0 0-85.333333 85.333333v213.333334H213.333333a42.713333 42.713333 0 0 1-42.666666-42.666667V414.173333l319.886666-319.886666a30.34 30.34 0 0 1 42.893334 0L853.333333 414.173333z m0-542.173333l-85.333333-85.333334V170.666667h85.333333z" fill="#5C5C66" p-id="4231"></path></svg>