<?xml version="1.0" standalone="no"?><!DOCTYPE svg PUBLIC "-//W3C//DTD SVG 1.1//EN" "http://www.w3.org/Graphics/SVG/1.1/DTD/svg11.dtd"><svg t="1650331656978" class="icon" viewBox="0 0 1024 1024" version="1.1" xmlns="http://www.w3.org/2000/svg" p-id="4373" xmlns:xlink="http://www.w3.org/1999/xlink" width="200" height="200"><defs><style type="text/css">@font-face { font-family: feedback-iconfont; src: url("//at.alicdn.com/t/font_1031158_u69w8yhxdu.woff2?t=1630033759944") format("woff2"), url("//at.alicdn.com/t/font_1031158_u69w8yhxdu.woff?t=1630033759944") format("woff"), url("//at.alicdn.com/t/font_1031158_u69w8yhxdu.ttf?t=1630033759944") format("truetype"); }
</style></defs><path d="M473.429333 402.816a112.938667 112.938667 0 1 0 0-225.877333 112.938667 112.938667 0 0 0 0 225.877333z m0 84.693333a197.632 197.632 0 1 1 0-395.264 197.632 197.632 0 0 1 0 395.264z" p-id="4374"></path><path d="M732.032 678.570667l63.488-62.890667c37.290667 70.826667 58.88 155.008 58.88 245.589333 0 19.541333 0.213333 49.706667-80.64 49.706667H183.296c-37.034667 0-89.941333 0-89.941333-49.706667 0-266.154667 169.6-458.453333 380.117333-458.453333 68.48 0 132.736 21.589333 188.288 59.52l-61.696 61.141333a245.632 245.632 0 0 0-126.592-35.968c-154.965333 0-281.002667 139.306667-294.272 338.773334H768.426667a441.898667 441.898667 0 0 0-36.394667-147.712z" p-id="4375"></path><path d="M916.138667 438.570667l-87.466667-86.869334L883.2 297.429333c9.685333-9.6 24.832-10.112 33.877333-1.109333l54.613334 54.272c9.088 9.002667 8.576 24.064-1.066667 33.706667l-54.442667 54.272z m-385.578667 312.32c-11.477333 2.816-18.517333-3.968-15.658667-15.530667l23.466667-94.634667 270.122667-267.605333 87.424 86.826667-270.122667 267.648-95.232 23.296z" p-id="4376"></path></svg>