<svg t="1651027387818" class="icon" viewBox="0 0 1024 1024" version="1.1" xmlns="http://www.w3.org/2000/svg" p-id="2983" width="16" height="16"><path d="M692.352 654.592a320 320 0 1 0-37.76 37.76l20.48-17.28 17.28-20.48z m228.544 221.056a32 32 0 0 1-45.248 45.248l-179.712-179.648a384 384 0 1 1 45.248-45.248l179.712 179.648z" p-id="2984"></path><path d="M549.44 489.408c18.56 0 28.8 9.6 28.8 22.208a33.024 33.024 0 0 1-9.216 21.888 245.12 245.12 0 0 1-63.744 50.112c35.84 14.912 76.352 25.216 120.768 31.552 8.96 1.28 13.952 7.296 13.952 16.256 0 0.96 0 2.304-0.32 3.648-1.28 10.24-6.976 14.912-14.912 14.912-1.344 0-2.688 0-4.672-0.32-57.088-8-107.84-24.256-149.952-47.424a583.232 583.232 0 0 1-161.6 48.768c-1.28 0.32-2.624 0.32-4.288 0.32-8.96 0-14.272-4.992-15.936-14.976a17.536 17.536 0 0 1-0.32-4.288c0-7.296 4.672-12.608 13.952-13.952a579.328 579.328 0 0 0 136.96-35.84 265.92 265.92 0 0 1-57.024-53.76c-20.928 18.624-43.776 33.536-66.048 43.84a27.2 27.2 0 0 1-9.28 2.304c-5.632 0-10.624-2.624-13.568-9.6a19.584 19.584 0 0 1-2.368-8.32c0-4.928 2.688-9.6 9.6-12.608 42.88-18.24 81.984-49.088 102.912-80.896H378.88c-24.512 0-36.16-8.96-36.16-32.896V354.688c0-25.856 13.632-36.8 44.16-36.8h167.168c25.92 0 38.208 9.28 38.208 33.536v78.592c0 24.576-11.328 33.536-38.208 33.536H438.272c-5.632 8.96-11.904 17.536-18.56 26.24h129.728v-0.384z m-170.24-198.4c-16.192 20.928-35.84 40.512-56.704 55.744a19.2 19.2 0 0 1-11.264 4.288c-4.672 0-8.96-2.304-12.608-6.592a17.664 17.664 0 0 1-4.352-11.328c0-4.608 2.368-8.96 7.36-12.608 34.496-24.192 60.672-55.68 75.264-87.232a14.08 14.08 0 0 1 13.952-9.28c2.304 0 4.672 0.32 7.296 1.024 6.976 1.92 11.584 6.592 11.584 12.608a14.912 14.912 0 0 1-1.92 7.936c-2.368 4.992-4.992 9.6-8 14.912h211.008c8.32 0 12.608 6.016 12.608 15.296s-4.352 15.232-12.608 15.232H379.264zM559.36 376.96v-20.608c0-8.32-4.288-10.624-12.608-10.624H387.52c-8.96 0-12.608 2.368-12.608 10.624v20.608H559.36z m-184.448 49.408c0 8 3.648 10.24 12.608 10.24h159.232c8.32 0 12.608-2.24 12.608-10.24v-22.208H374.912v22.208z m33.216 90.56c18.24 20.928 39.808 37.504 64 51.136 24.576-12.608 46.08-26.88 60.736-42.88 2.304-2.24 3.264-4.288 3.264-5.568 0-1.984-2.304-2.688-6.912-2.688H408.128z" p-id="2985"></path></svg>