<svg t="1650964787318" class="icon" viewBox="0 0 1024 1024" version="1.1" xmlns="http://www.w3.org/2000/svg" p-id="4594" width="200" height="200"><path d="M842.112 114.784a68 68 0 0 1 68 68V480a36 36 0 1 1-72 0V186.784H185.744v649.92h246.528a36 36 0 1 1 0 72H181.76a68 68 0 0 1-68-68v-657.92a68 68 0 0 1 68-68z m-112 413.92a120 120 0 0 1 92.496 196.448c52.32 29.968 87.504 84.64 87.504 147.552a36 36 0 1 1-72 0l-0.08-3.552c-2.016-53.152-49.136-96.448-107.92-96.448-60.096 0-108 45.248-108 100l-0.096 2.464a36 36 0 0 1-71.904-2.464c0-62.896 35.184-117.6 87.488-147.568a120 120 0 0 1 92.496-196.416z m0 72a48 48 0 1 0 0 96 48 48 0 0 0 0-96z m-308.896 3.296a36 36 0 1 1 0 72H272a36 36 0 1 1 0-72z m0-160a36 36 0 1 1 0 72H272a36 36 0 1 1 0-72z m111.52-160a36 36 0 1 1 0 72H272a36 36 0 1 1 0-72z" fill="#000000" opacity=".65" p-id="4595"></path></svg>