<svg t="1650965229342" class="icon" viewBox="0 0 1024 1024" version="1.1" xmlns="http://www.w3.org/2000/svg" p-id="6399" width="32" height="32"><path d="M740.2496 691.6608a38.4 38.4 0 0 1 54.1696-3.8912 421.5296 421.5296 0 0 1 144.384 284.928 38.4 38.4 0 0 1-76.544 6.144 344.7296 344.7296 0 0 0-118.1696-233.0112 38.4 38.4 0 0 1-3.84-54.1696zM486.4 12.8a320 320 0 1 1 0 640 345.6 345.6 0 0 0-345.3952 333.4656l-0.2048 12.1344H64a422.5024 422.5024 0 0 1 259.7888-389.9904A320 320 0 0 1 486.4 12.8z m0 76.8a243.2 243.2 0 1 0 0 486.4 243.2 243.2 0 0 0 0-486.4z" p-id="6400"></path></svg>